HIERARCHY
ROOT Hips
{
	OFFSET 0.000000 0.000000 0.000000
	CHANNELS 6 Xposition Yposition Zposition Xrotation Yrotation Zrotation
	JOINT LeftUpLeg_virtual
	{
		OFFSET 0.000000 0.000000 0.000000
		CHANNELS 3 Xrotation Yrotation Zrotation
		JOINT LeftUpLeg
		{
			OFFSET 10.205400 -3.823500 0.155100
			CHANNELS 3 Xrotation Yrotation Zrotation
			JOINT LeftLeg
			{
				OFFSET 0.708757 -12.982077 0.567790
				CHANNELS 3 Xrotation Yrotation Zrotation
				JOINT LeftFoot
				{
					OFFSET -0.708756 -10.717838 -2.184338
					CHANNELS 3 Xrotation Yrotation Zrotation
					JOINT LeftToeBase
					{
						OFFSET 0.108149 -7.191104 7.560241
						CHANNELS 3 Xrotation Yrotation Zrotation
						JOINT LeftToe_End
						{
							OFFSET 0.070230 0.081724 4.490308
							CHANNELS 3 Xrotation Yrotation Zrotation
							End Site
							{
								OFFSET 0 0 0
							}
						}
					}
				}
			}
		}
	}
	JOINT RightUpLeg_virtual
	{
		OFFSET 0.000000 0.000000 0.000000
		CHANNELS 3 Xrotation Yrotation Zrotation
		JOINT RightUpLeg
		{
			OFFSET -10.205400 -3.823500 0.005500
			CHANNELS 3 Xrotation Yrotation Zrotation
			JOINT RightLeg
			{
				OFFSET -0.708756 -12.982134 0.610632
				CHANNELS 3 Xrotation Yrotation Zrotation
				JOINT RightFoot
				{
					OFFSET 0.708754 -10.717769 -1.945823
					CHANNELS 3 Xrotation Yrotation Zrotation
					JOINT RightToeBase
					{
						OFFSET -0.108140 -7.191069 7.372968
						CHANNELS 3 Xrotation Yrotation Zrotation
						JOINT RightToe_End
						{
							OFFSET -0.070227 0.081735 4.479403
							CHANNELS 3 Xrotation Yrotation Zrotation
							End Site
							{
								OFFSET 0 0 0
							}
						}
					}
				}
			}
		}
	}
	JOINT Spine_virtual
	{
		OFFSET 0.000000 0.000000 0.000000
		CHANNELS 3 Xrotation Yrotation Zrotation
		JOINT Spine
		{
			OFFSET 0.000000 6.876099 0.125700
			CHANNELS 3 Xrotation Yrotation Zrotation
			JOINT Spine1
			{
				OFFSET 0.000000 5.730043 0.104720
				CHANNELS 3 Xrotation Yrotation Zrotation
				JOINT Spine1_split
				{
					OFFSET 0.000000 5.730043 0.104720
					CHANNELS 3 Xrotation Yrotation Zrotation
					JOINT Spine2
					{
						OFFSET 0.000000 5.730043 0.104720
						CHANNELS 3 Xrotation Yrotation Zrotation
						JOINT Neck_virtual
						{
							OFFSET 0.000000 0.000000 0.000000
							CHANNELS 3 Xrotation Yrotation Zrotation
							JOINT Neck
							{
								OFFSET 0.000000 10.314075 0.188496
								CHANNELS 3 Xrotation Yrotation Zrotation
								JOINT Head
								{
									OFFSET 0.000000 7.643700 -2.377400
									CHANNELS 3 Xrotation Yrotation Zrotation
									JOINT HeadTop_End
									{
										OFFSET 0.000000 43.788605 -13.619600
										CHANNELS 3 Xrotation Yrotation Zrotation
										End Site
										{
											OFFSET 0 0 0
										}
									}
								}
							}
						}
						JOINT LeftShoulder_virtual
						{
							OFFSET 0.000000 0.000000 0.000000
							CHANNELS 3 Xrotation Yrotation Zrotation
							JOINT LeftShoulder
							{
								OFFSET 2.196100 4.412489 0.087492
								CHANNELS 3 Xrotation Yrotation Zrotation
								JOINT LeftShoulder_split
								{
									OFFSET 2.196100 4.412489 0.087492
									CHANNELS 3 Xrotation Yrotation Zrotation
									JOINT LeftArm
									{
										OFFSET 8.771219 -2.981674 -0.026999
										CHANNELS 3 Xrotation Yrotation Zrotation
										JOINT LeftForeArm
										{
											OFFSET 8.512804 0.000000 -0.000000
											CHANNELS 3 Xrotation Yrotation Zrotation
											JOINT LeftHand
											{
												OFFSET 18.484802 0.000000 -0.000000
												CHANNELS 3 Xrotation Yrotation Zrotation
												End Site
												{
													OFFSET 0 0 0
												}
											}
										}
									}
								}
							}
						}
						JOINT RightShoulder_virtual
						{
							OFFSET 0.000000 0.000000 0.000000
							CHANNELS 3 Xrotation Yrotation Zrotation
							JOINT RightShoulder
							{
								OFFSET -2.196100 4.412496 0.070690
								CHANNELS 3 Xrotation Yrotation Zrotation
								JOINT RightShoulder_split
								{
									OFFSET -2.196100 4.412496 0.070690
									CHANNELS 3 Xrotation Yrotation Zrotation
									JOINT RightArm
									{
										OFFSET -8.771282 -2.981682 -0.094208
										CHANNELS 3 Xrotation Yrotation Zrotation
										JOINT RightForeArm
										{
											OFFSET -8.494598 0.000000 0.000000
											CHANNELS 3 Xrotation Yrotation Zrotation
											JOINT RightHand
											{
												OFFSET -18.483803 0.000000 0.000001
												CHANNELS 3 Xrotation Yrotation Zrotation
												End Site
												{
													OFFSET 0 0 0
												}
											}
										}
									}
								}
							}
						}
					}
				}
			}
		}
	}
}
MOTION
Frames: 8
Frame Time: 0.03333333
0.026710 29.243084 0.414545 0.000000 0.000000 0.000000 12.283445 -55.738759 10.994321 -48.564182 1.770516 34.129496 47.950179 -13.770764 -11.386593 -6.951046 -0.096106 -8.117721 0.612364 0.000003 0.000008 0.000000 0.000000 0.000000 12.283445 -55.738759 10.994321 -25.782011 -7.302691 -28.320039 58.276841 14.160509 -0.303786 -45.980752 -9.470930 14.418353 9.010804 -0.000049 0.000007 0.000000 0.000000 0.000000 12.283445 -55.738759 10.994321 11.710750 1.246048 -2.458477 -7.573170 6.733738 -2.520091 0.000000 0.000000 0.000000 0.000000 0.000000 0.000000 0.220138 5.397593 -4.595492 -12.580315 9.083987 1.899287 -4.773442 33.430747 5.660078 0.000000 0.000000 0.000000 0.220138 5.397593 -4.595492 -31.809704 13.410720 5.488770 0.000000 0.000000 0.000000 38.429527 -24.730793 -35.179207 -0.000002 -63.060876 0.000001 0.000000 0.000000 0.000000 0.220138 5.397593 -4.595492 0.882304 7.689511 10.201961 0.000000 0.000000 0.000000 7.550365 1.963491 57.853738 0.000013 75.685196 -0.000018 0.000000 0.000000 0.000000 
0.009574 29.244370 0.412071 0.000000 0.000000 0.000000 12.199534 -55.682014 10.885827 -48.546802 1.733323 34.198023 47.927417 -13.670325 -11.408406 -6.902109 -0.281375 -8.145900 0.612373 -0.000013 -0.000006 0.000000 0.000000 0.000000 12.199534 -55.682014 10.885827 -25.612216 -7.385252 -28.237259 58.208662 14.149705 -0.303502 -46.042476 -9.522379 14.369379 9.010812 -0.000051 0.000002 0.000000 0.000000 0.000000 12.199534 -55.682014 10.885827 11.710820 1.245113 -2.460701 -7.573170 6.733740 -2.520092 0.000000 0.000000 0.000000 0.000000 0.000000 0.000000 0.220135 5.397590 -4.595492 -12.608601 10.491369 2.412572 -4.224774 32.405751 4.896690 0.000000 0.000000 0.000000 0.220135 5.397590 -4.595492 -31.754069 12.465688 5.128831 0.000000 0.000000 0.000000 39.012275 -25.126468 -34.726987 0.000030 -61.838777 0.000061 0.000000 0.000000 0.000000 0.220135 5.397590 -4.595492 1.163723 7.679726 9.947251 0.000000 0.000000 0.000000 6.979112 3.931136 56.951753 -0.000008 74.671733 0.000030 0.000000 0.000000 0.000000 
-0.011543 29.244751 0.412418 0.000000 0.000000 0.000000 12.142669 -55.599331 10.791669 -48.564523 1.685956 34.266062 47.914962 -13.565364 -11.429218 -6.850230 -0.491350 -8.171221 0.612362 -0.000021 0.000005 0.000000 0.000000 0.000000 12.142669 -55.599331 10.791669 -25.424416 -7.483960 -28.142416 58.123059 14.137762 -0.302909 -46.120729 -9.595322 14.314372 9.010789 -0.000058 0.000006 0.000000 0.000000 0.000000 12.142669 -55.599331 10.791669 11.710904 1.243807 -2.463331 -7.573173 6.733740 -2.520093 0.000000 0.000000 0.000000 0.000000 0.000000 0.000000 0.220140 5.397600 -4.595492 -12.821394 12.084340 2.975462 -3.719843 31.374129 4.175468 0.000000 0.000000 0.000000 0.220140 5.397600 -4.595492 -31.730419 11.421061 4.759086 0.000000 0.000000 0.000000 39.967019 -25.538422 -34.374242 -0.000003 -60.212380 0.000004 0.000000 0.000000 0.000000 0.220140 5.397600 -4.595492 1.475936 7.670226 9.670616 0.000000 0.000000 0.000000 6.392932 5.865463 55.957308 -0.000013 73.593519 0.000014 0.000000 0.000000 0.000000 
-0.034146 29.245674 0.412127 0.000000 0.000000 0.000000 12.080402 -55.552049 10.698428 -48.533309 1.648115 34.348007 47.918152 -13.466125 -11.451102 -6.847748 -0.673907 -8.204823 0.612371 0.000010 0.000002 0.000000 0.000000 0.000000 12.080402 -55.552049 10.698428 -25.258861 -7.573613 -28.055487 58.048104 14.122625 -0.303343 -46.184759 -9.628571 14.270568 9.010798 -0.000069 0.000001 0.000000 0.000000 0.000000 12.080402 -55.552049 10.698428 11.710987 1.242978 -2.465912 -7.573174 6.733736 -2.520091 0.000000 0.000000 0.000000 0.000000 0.000000 0.000000 0.220136 5.397587 -4.595490 -13.172012 13.808997 3.564263 -3.175430 30.361810 3.469795 0.000000 0.000000 0.000000 0.220136 5.397587 -4.595490 -31.736494 10.309262 4.391985 0.000000 0.000000 0.000000 41.206678 -26.015164 -34.093705 -0.000016 -58.194038 0.000001 0.000000 0.000000 0.000000 0.220136 5.397587 -4.595490 1.816784 7.661908 9.370136 0.000000 0.000000 0.000000 5.862032 7.760598 54.903379 0.000008 72.405381 -0.000010 0.000000 0.000000 0.000000 
-0.064481 29.239910 0.417618 0.000000 0.000000 0.000000 11.957528 -55.467208 10.560465 -48.506405 1.610695 34.416381 47.966721 -13.365215 -11.466974 -6.865807 -0.906115 -8.227175 0.612371 0.000026 -0.000005 0.000000 0.000000 0.000000 11.957528 -55.467208 10.560465 -25.007206 -7.681802 -27.983510 57.995321 14.112224 -0.303045 -46.325707 -9.696148 14.217437 9.010795 -0.000063 0.000009 0.000000 0.000000 0.000000 11.957528 -55.467208 10.560465 11.711047 1.241805 -2.468481 -7.573168 6.733737 -2.520094 0.000000 0.000000 0.000000 0.000000 0.000000 0.000000 0.220133 5.397606 -4.595490 -13.611893 15.600400 4.167294 -2.564155 29.340112 2.779435 0.000000 0.000000 0.000000 0.220133 5.397606 -4.595490 -31.768415 9.163172 4.038131 0.000000 0.000000 0.000000 42.599992 -26.639877 -33.886262 0.000001 -55.860388 -0.000003 0.000000 0.000000 0.000000 0.220133 5.397606 -4.595490 2.178131 7.655619 9.046889 0.000000 0.000000 0.000000 5.487199 9.610669 53.855451 0.000013 71.052586 -0.000018 0.000000 0.000000 0.000000 
-0.101334 29.220856 0.424389 0.000000 0.000000 0.000000 11.851596 -55.387063 10.438080 -48.507949 1.542235 34.505460 48.127326 -13.266685 -11.477594 -6.959145 -1.150285 -8.265862 0.612370 -0.000014 0.000003 0.000000 0.000000 0.000000 11.851596 -55.387063 10.438080 -24.775215 -7.771483 -27.931090 58.027286 14.113884 -0.301122 -46.536254 -9.758582 14.167697 9.010818 -0.000061 0.000002 0.000000 0.000000 0.000000 11.851596 -55.387063 10.438080 11.711131 1.240695 -2.471022 -7.573175 6.733738 -2.520091 0.000000 0.000000 0.000000 0.000000 0.000000 0.000000 0.220137 5.397601 -4.595490 -14.103587 17.400458 4.762778 -1.864424 28.302318 2.101894 0.000000 0.000000 0.000000 0.220137 5.397601 -4.595490 -31.820612 8.016337 3.705920 0.000000 0.000000 0.000000 44.066164 -27.360751 -33.695652 0.000008 -53.378765 0.000017 0.000000 0.000000 0.000000 0.220137 5.397601 -4.595490 2.549005 7.651774 8.703963 0.000000 0.000000 0.000000 5.354237 11.411965 52.878177 0.000002 69.497154 -0.000025 0.000000 0.000000 0.000000 
-0.144586 29.198166 0.437243 0.000000 0.000000 0.000000 11.741093 -55.288974 10.292742 -48.530041 1.440213 34.621491 48.356626 -13.173530 -11.489345 -7.099198 -1.422180 -8.308535 0.612369 -0.000005 0.000004 0.000000 0.000000 0.000000 11.741093 -55.288974 10.292742 -24.493200 -7.886061 -27.856001 58.037436 14.109906 -0.299441 -46.772101 -9.836028 14.115000 9.010793 -0.000030 0.000007 0.000000 0.000000 0.000000 11.741093 -55.288974 10.292742 11.711260 1.239233 -2.474890 -7.573171 6.733723 -2.520087 0.000000 0.000000 0.000000 0.000000 0.000000 0.000000 0.220133 5.397593 -4.595490 -14.592105 19.175324 5.303606 -1.090993 27.292616 1.457443 0.000000 0.000000 0.000000 0.220133 5.397593 -4.595490 -31.885980 6.902797 3.401609 0.000000 0.000000 0.000000 45.490060 -28.161985 -33.525574 0.000003 -50.897255 0.000005 0.000000 0.000000 0.000000 0.220133 5.397593 -4.595490 2.920307 7.650388 8.343447 0.000000 0.000000 0.000000 5.491369 13.167205 52.001997 0.000010 67.735881 -0.000017 0.000000 0.000000 0.000000 
-0.196714 29.162018 0.454355 0.000000 0.000000 0.000000 11.635102 -55.144086 10.140062 -48.623522 1.281743 34.762374 48.704184 -13.085891 -11.500414 -7.289274 -1.750003 -8.363953 0.612384 0.000026 0.000004 0.000000 0.000000 0.000000 11.635102 -55.144086 10.140062 -24.162605 -8.005936 -27.767799 58.100874 14.113272 -0.296259 -47.107606 -9.965735 14.039165 9.010809 -0.000022 0.000002 0.000000 0.000000 0.000000 11.635102 -55.144086 10.140062 11.711394 1.237212 -2.479462 -7.573170 6.733741 -2.520091 0.000000 0.000000 0.000000 0.000000 0.000000 0.000000 0.220137 5.397598 -4.595490 -15.007964 20.884709 5.771498 -0.287509 26.338661 0.849969 0.000000 0.000000 0.000000 0.220137 5.397598 -4.595490 -31.956164 5.857070 3.129550 0.000000 0.000000 0.000000 46.746252 -28.950535 -33.353405 -0.000015 -48.637255 -0.000003 0.000000 0.000000 0.000000 0.220137 5.397598 -4.595490 3.284004 7.651122 7.966465 0.000000 0.000000 0.000000 5.920878 14.880298 51.269951 0.000028 65.751158 -0.000019 0.000000 0.000000 0.000000 
